<?xml version="1.0" encoding="UTF-8" standalone="no"?>
<!-- Created with Inkscape (http://www.inkscape.org/) -->

<svg
   xmlns:dc="http://purl.org/dc/elements/1.1/"
   xmlns:cc="http://creativecommons.org/ns#"
   xmlns:rdf="http://www.w3.org/1999/02/22-rdf-syntax-ns#"
   xmlns:svg="http://www.w3.org/2000/svg"
   xmlns="http://www.w3.org/2000/svg"
   xmlns:sodipodi="http://sodipodi.sourceforge.net/DTD/sodipodi-0.dtd"
   xmlns:inkscape="http://www.inkscape.org/namespaces/inkscape"
   width="182"
   height="18"
   viewBox="0 0 182 18"
   id="svg4136"
   version="1.1"
   inkscape:version="0.91 r13725"
   sodipodi:docname="fa.svg">
  <defs
     id="defs4138" />
  <sodipodi:namedview
     id="base"
     pagecolor="#ffffff"
     bordercolor="#666666"
     borderopacity="1.0"
     inkscape:pageopacity="0.0"
     inkscape:pageshadow="2"
     inkscape:zoom="5.6568542"
     inkscape:cx="107.39629"
     inkscape:cy="18.365884"
     inkscape:document-units="px"
     inkscape:current-layer="layer1"
     showgrid="false"
     units="px"
     inkscape:snap-text-baseline="false"
     inkscape:window-width="1920"
     inkscape:window-height="1137"
     inkscape:window-x="1272"
     inkscape:window-y="-8"
     inkscape:window-maximized="1" />
  <metadata
     id="metadata4141">
    <rdf:RDF>
      <cc:Work
         rdf:about="">
        <dc:format>image/svg+xml</dc:format>
        <dc:type
           rdf:resource="http://purl.org/dc/dcmitype/StillImage" />
        <dc:title></dc:title>
      </cc:Work>
    </rdf:RDF>
  </metadata>
  <g
     inkscape:label="Layer 1"
     inkscape:groupmode="layer"
     id="layer1"
     transform="translate(0,-1034.3621)">
    <g
       style="font-style:normal;font-variant:normal;font-weight:normal;font-stretch:normal;font-size:11.67758846px;line-height:125%;font-family:Tahoma;-inkscape-font-specification:Tahoma;letter-spacing:0px;word-spacing:0px;fill:#000000;fill-opacity:1;stroke:none;stroke-width:1px;stroke-linecap:butt;stroke-linejoin:miter;stroke-opacity:1"
       id="text4684"
       transform="translate(-2,2)">
      <path
         d="m 8.8064833,1035.6151 -0.073242,0 q -0.1831055,-0.066 -0.5273438,-0.1245 -0.3442383,-0.066 -0.6152343,-0.066 -0.8715821,0 -1.2451172,0.3955 -0.366211,0.3882 -0.366211,1.4136 l 0,0.2783 2.2778321,0 0,1.1426 -2.2338868,0 0,7.0385 -1.3769531,0 0,-7.0385 -0.9301758,0 0,-1.1426 0.9301758,0 0,-0.271 q 0,-1.4795 0.7104492,-2.2485 0.7104493,-0.7691 2.0361328,-0.7691 0.3808594,0 0.7470704,0.044 0.3662109,0.037 0.6665039,0.088 l 0,1.2598 z"
         style="font-style:normal;font-variant:normal;font-weight:normal;font-stretch:normal;font-size:15px;font-family:Tahoma;-inkscape-font-specification:Tahoma"
         id="path4813"
         inkscape:connector-curvature="0" />
      <path
         d="m 13.845546,1043.6791 0,-2.2705 q -0.490723,0.044 -1.245117,0.1245 -0.747071,0.073 -1.208497,0.2124 -0.549316,0.1684 -0.908203,0.52 -0.358886,0.3442 -0.358886,0.9668 0,0.7031 0.395507,1.062 0.395508,0.3589 1.157227,0.3589 0.651855,0 1.179199,-0.2783 0.527344,-0.2857 0.98877,-0.6958 z m 0,1.1426 q -0.168457,0.1245 -0.454102,0.3515 -0.27832,0.2197 -0.541992,0.3516 -0.366211,0.1904 -0.710449,0.2929 -0.336914,0.1026 -0.952149,0.1026 -0.505371,0 -0.959472,-0.1904 -0.4541019,-0.1905 -0.7983401,-0.5347 -0.3295899,-0.3369 -0.5273438,-0.8276 -0.1977539,-0.4981 -0.1977539,-1.0474 0,-0.8496 0.3588867,-1.4429 0.3588867,-0.6006 1.1352541,-0.9521 0.688476,-0.315 1.625976,-0.4322 0.9375,-0.1245 2.021485,-0.1831 l 0,-0.2636 q 0,-0.4834 -0.146485,-0.7764 -0.146484,-0.3003 -0.410156,-0.4614 -0.263672,-0.1685 -0.644531,-0.2198 -0.380859,-0.059 -0.783692,-0.059 -0.476074,0 -1.120605,0.1464 -0.644531,0.1392 -1.2890625,0.4102 l -0.080566,0 0,-1.3989 q 0.3808594,-0.1099 1.0913085,-0.2417 0.710449,-0.1319 1.40625,-0.1319 0.842285,0 1.420898,0.1319 0.578613,0.1318 1.040039,0.476 0.446778,0.337 0.666504,0.8716 0.219727,0.5347 0.219727,1.3037 l 0,5.5957 -1.369629,0 0,-0.8715 z"
         style="font-style:normal;font-variant:normal;font-weight:normal;font-stretch:normal;font-size:15px;font-family:Tahoma;-inkscape-font-specification:Tahoma"
         id="path4815"
         inkscape:connector-curvature="0" />
      <path
         d="m 23.528163,1045.6932 -1.376953,0 0,-0.9082 q -0.637207,0.5567 -1.208496,0.8496 -0.571289,0.2857 -1.274414,0.2857 -0.534668,0 -1.010743,-0.1758 -0.46875,-0.1758 -0.820312,-0.5566 -0.351563,-0.3809 -0.549316,-0.9595 -0.19043,-0.5786 -0.19043,-1.4063 l 0,-5.31 1.376953,0 0,4.6582 q 0,0.6518 0.04395,1.084 0.05127,0.4248 0.219727,0.747 0.168457,0.315 0.454101,0.4615 0.292969,0.1465 0.834961,0.1465 0.505371,0 1.076661,-0.2857 0.571289,-0.2856 1.047363,-0.7031 l 0,-6.1084 1.376953,0 0,8.1811 z"
         style="font-style:normal;font-variant:normal;font-weight:normal;font-stretch:normal;font-size:15px;font-family:Tahoma;-inkscape-font-specification:Tahoma"
         id="path4817"
         inkscape:connector-curvature="0" />
      <path
         d="m 28.786952,1045.8763 q -0.842285,0 -1.54541,-0.2563 -0.703125,-0.2637 -1.208496,-0.791 -0.505371,-0.5274 -0.783692,-1.3257 -0.27832,-0.8057 -0.27832,-1.8897 0,-1.0766 0.285645,-1.8603 0.292968,-0.7837 0.776367,-1.3184 0.483398,-0.5346 1.201172,-0.8203 0.725097,-0.2929 1.552734,-0.2929 0.673828,0 1.296387,0.1904 0.629883,0.1904 1.120605,0.4394 l 0,1.5454 -0.08057,0 q -0.146485,-0.1245 -0.38086,-0.2856 -0.22705,-0.1611 -0.55664,-0.3296 -0.285645,-0.1465 -0.673828,-0.2563 -0.388184,-0.1099 -0.747071,-0.1099 -1.069336,0 -1.721191,0.813 -0.644531,0.8057 -0.644531,2.2851 0,1.4502 0.622558,2.2632 0.629883,0.8057 1.743164,0.8057 0.673828,0 1.281739,-0.2783 0.60791,-0.2783 1.07666,-0.7178 l 0.08057,0 0,1.5454 q -0.205078,0.095 -0.512695,0.2344 -0.307617,0.1318 -0.556641,0.1977 -0.351562,0.1026 -0.629883,0.1538 -0.27832,0.059 -0.717773,0.059 z"
         style="font-style:normal;font-variant:normal;font-weight:normal;font-stretch:normal;font-size:15px;font-family:Tahoma;-inkscape-font-specification:Tahoma"
         id="path4819"
         inkscape:connector-curvature="0" />
      <path
         d="m 36.001307,1045.8837 q -1.955566,0 -3.03955,-1.0987 -1.07666,-1.1059 -1.07666,-3.1347 0,-1.9995 1.047363,-3.1787 1.047363,-1.1866 2.739258,-1.1866 0.761718,0 1.347656,0.2198 0.585937,0.2197 1.025391,0.6884 0.439453,0.4688 0.673828,1.1499 0.234375,0.6739 0.234375,1.6553 l 0,0.7471 -5.668946,0 q 0,1.4282 0.717774,2.1826 0.717773,0.7544 1.984863,0.7544 0.454102,0 0.886231,-0.1025 0.439453,-0.1026 0.791015,-0.2637 0.373535,-0.1685 0.629883,-0.3223 0.256348,-0.1611 0.424805,-0.3003 l 0.08057,0 0,1.5015 q -0.241699,0.095 -0.600586,0.2417 -0.358887,0.1391 -0.644531,0.2197 -0.402832,0.1099 -0.732422,0.1685 -0.322266,0.059 -0.820313,0.059 z m 1.611329,-5.1929 q -0.01465,-0.5566 -0.131836,-0.9595 -0.117188,-0.4028 -0.336914,-0.6811 -0.2417,-0.3076 -0.622559,-0.4688 -0.373535,-0.1611 -0.930176,-0.1611 -0.549316,0 -0.9375,0.1684 -0.380859,0.1612 -0.695801,0.4761 -0.307617,0.3223 -0.46875,0.7178 -0.161132,0.3882 -0.205078,0.9082 l 4.328614,0 z"
         style="font-style:normal;font-variant:normal;font-weight:normal;font-stretch:normal;font-size:15px;font-family:Tahoma;-inkscape-font-specification:Tahoma"
         id="path4821"
         inkscape:connector-curvature="0" />
      <path
         d="m 42.834804,1045.8544 q -1.12793,0 -1.757813,-0.6372 -0.629883,-0.6446 -0.629883,-2.0288 l 0,-4.5337 -0.930176,0 0,-1.1426 0.930176,0 0,-2.3511 1.376953,0 0,2.3511 2.53418,0 0,1.1426 -2.53418,0 0,3.8891 q 0,0.6226 0.02197,0.9595 0.02197,0.3369 0.168457,0.6299 0.124512,0.2563 0.402832,0.3882 0.27832,0.1245 0.754395,0.1245 0.336914,0 0.651855,-0.095 0.314942,-0.1026 0.454102,-0.1685 l 0.08057,0 0,1.2378 q -0.388184,0.1099 -0.791016,0.1685 -0.395507,0.066 -0.732421,0.066 z"
         style="font-style:normal;font-variant:normal;font-weight:normal;font-stretch:normal;font-size:15px;font-family:Tahoma;-inkscape-font-specification:Tahoma"
         id="path4823"
         inkscape:connector-curvature="0" />
      <path
         d="m 49.162929,1041.5844 -4.13086,0 0,-1.3257 4.13086,0 0,1.3257 z"
         style="font-style:normal;font-variant:normal;font-weight:normal;font-stretch:normal;font-size:15px;font-family:Tahoma;-inkscape-font-specification:Tahoma"
         id="path4825"
         inkscape:connector-curvature="0" />
      <path
         d="m 55.388515,1043.6791 0,-2.2705 q -0.490723,0.044 -1.245118,0.1245 -0.74707,0.073 -1.208496,0.2124 -0.549316,0.1684 -0.908203,0.52 -0.358887,0.3442 -0.358887,0.9668 0,0.7031 0.395508,1.062 0.395508,0.3589 1.157227,0.3589 0.651855,0 1.179199,-0.2783 0.527344,-0.2857 0.98877,-0.6958 z m 0,1.1426 q -0.168458,0.1245 -0.454102,0.3515 -0.27832,0.2197 -0.541992,0.3516 -0.366211,0.1904 -0.710449,0.2929 -0.336915,0.1026 -0.952149,0.1026 -0.505371,0 -0.959473,-0.1904 -0.454101,-0.1905 -0.798339,-0.5347 -0.32959,-0.3369 -0.527344,-0.8276 -0.197754,-0.4981 -0.197754,-1.0474 0,-0.8496 0.358887,-1.4429 0.358886,-0.6006 1.135254,-0.9521 0.688476,-0.315 1.625976,-0.4322 0.9375,-0.1245 2.021485,-0.1831 l 0,-0.2636 q 0,-0.4834 -0.146485,-0.7764 -0.146484,-0.3003 -0.410156,-0.4614 -0.263672,-0.1685 -0.644531,-0.2198 -0.38086,-0.059 -0.783692,-0.059 -0.476074,0 -1.120605,0.1464 -0.644531,0.1392 -1.289063,0.4102 l -0.08057,0 0,-1.3989 q 0.380859,-0.1099 1.091308,-0.2417 0.71045,-0.1319 1.40625,-0.1319 0.842286,0 1.420899,0.1319 0.578613,0.1318 1.040039,0.476 0.446777,0.337 0.666504,0.8716 0.219726,0.5347 0.219726,1.3037 l 0,5.5957 -1.369628,0 0,-0.8715 z"
         style="font-style:normal;font-variant:normal;font-weight:normal;font-stretch:normal;font-size:15px;font-family:Tahoma;-inkscape-font-specification:Tahoma"
         id="path4827"
         inkscape:connector-curvature="0" />
      <path
         d="m 64.99789,1045.6932 -1.376954,0 0,-0.8349 q -0.322265,0.271 -0.55664,0.4468 -0.234375,0.1757 -0.549317,0.3222 -0.292968,0.1392 -0.60791,0.2124 -0.314941,0.081 -0.732422,0.081 -0.666504,0 -1.237793,-0.2783 -0.563964,-0.2784 -0.959472,-0.813 -0.402832,-0.542 -0.622559,-1.333 -0.219726,-0.7984 -0.219726,-1.8311 0,-1.0766 0.27832,-1.8603 0.27832,-0.7911 0.769043,-1.377 0.446777,-0.5347 1.07666,-0.8349 0.637207,-0.3077 1.333008,-0.3077 0.615234,0 1.069336,0.1392 0.454101,0.1318 0.959472,0.4175 l 0,-3.5449 1.376954,0 0,11.3964 z m -1.376954,-1.9922 0,-4.7167 q -0.512695,-0.2491 -0.922851,-0.3443 -0.402832,-0.095 -0.878906,-0.095 -1.062012,0 -1.662598,0.7983 -0.600586,0.7911 -0.600586,2.2925 0,1.4429 0.461426,2.2119 0.461426,0.7618 1.479492,0.7618 0.541992,0 1.091309,-0.2417 0.549316,-0.2491 1.032714,-0.6666 z"
         style="font-style:normal;font-variant:normal;font-weight:normal;font-stretch:normal;font-size:15px;font-family:Tahoma;-inkscape-font-specification:Tahoma"
         id="path4829"
         inkscape:connector-curvature="0" />
      <path
         d="m 76.277186,1045.6932 0,-4.7314 q 0,-0.564 -0.04394,-1.04 -0.04395,-0.4834 -0.183105,-0.7544 -0.146485,-0.293 -0.417481,-0.4322 -0.270996,-0.1391 -0.732422,-0.1391 -0.424804,0 -0.915527,0.2636 -0.483399,0.2564 -1.003418,0.7471 0.0073,0.1245 0.01465,0.3003 0.01465,0.1685 0.01465,0.4028 l 0,5.3833 -1.376953,0 0,-4.7314 q 0,-0.564 -0.04395,-1.04 -0.04394,-0.4834 -0.183105,-0.7544 -0.146484,-0.293 -0.417481,-0.4322 -0.270996,-0.1391 -0.732421,-0.1391 -0.446778,0 -0.9375,0.2783 -0.490723,0.2783 -0.952149,0.7104 l 0,6.1084 -1.376953,0 0,-8.1811 1.376953,0 0,0.9082 q 0.541992,-0.542 1.069336,-0.835 0.534668,-0.3003 1.171875,-0.3003 0.725098,0 1.281738,0.3296 0.563965,0.3296 0.856934,1.084 0.622559,-0.6958 1.21582,-1.0547 0.593262,-0.3589 1.289063,-0.3589 0.527344,0 0.959472,0.1685 0.432129,0.1611 0.754395,0.5273 0.32959,0.3736 0.505371,0.9302 0.183106,0.5567 0.183106,1.3989 l 0,5.3833 -1.376954,0 z"
         style="font-style:normal;font-variant:normal;font-weight:normal;font-stretch:normal;font-size:15px;font-family:Tahoma;-inkscape-font-specification:Tahoma"
         id="path4831"
         inkscape:connector-curvature="0" />
      <path
         d="m 80.993983,1045.6932 -1.376953,0 0,-8.1811 1.376953,0 0,8.1811 z m 0.09521,-9.5507 -1.567383,0 0,-1.4283 1.567383,0 0,1.4283 z"
         style="font-style:normal;font-variant:normal;font-weight:normal;font-stretch:normal;font-size:15px;font-family:Tahoma;-inkscape-font-specification:Tahoma"
         id="path4833"
         inkscape:connector-curvature="0" />
      <path
         d="m 89.446132,1045.6932 -1.376953,0 0,-4.6582 q 0,-0.5639 -0.05859,-1.0473 -0.05127,-0.4908 -0.205078,-0.7837 -0.168457,-0.3076 -0.46875,-0.4541 -0.300293,-0.1538 -0.820313,-0.1538 -0.512695,0 -1.062012,0.2783 -0.541992,0.271 -1.062011,0.7104 l 0,6.1084 -1.376953,0 0,-8.1811 1.376953,0 0,0.9082 q 0.615234,-0.5493 1.21582,-0.8423 0.600586,-0.293 1.26709,-0.293 1.208496,0 1.889648,0.7984 0.681153,0.791 0.681153,2.2998 l 0,5.31 z"
         style="font-style:normal;font-variant:normal;font-weight:normal;font-stretch:normal;font-size:15px;font-family:Tahoma;-inkscape-font-specification:Tahoma"
         id="path4835"
         inkscape:connector-curvature="0" />
      <path
         d="m 103.1351,1040.8373 q 0,1.018 -0.27832,1.9702 -0.27832,0.9448 -0.79834,1.7358 l -3.0835,0 -0.183105,-0.8496 q -0.490723,0.4175 -0.908203,0.6665 -0.410157,0.2417 -1.120606,0.2417 -1.127929,0 -1.845703,-0.9009 -0.717773,-0.9082 -0.717773,-2.6293 0,-1.7212 0.878906,-2.6807 0.88623,-0.9595 2.021484,-0.9595 0.527344,0 0.908203,0.1319 0.38086,0.1318 0.769043,0.3515 l 0,-0.3515 1.164551,0 0,6.1669 1.662593,0 q 0.27833,-0.52 0.39551,-1.3476 0.12451,-0.8276 0.12451,-1.5015 0,-2.395 -1.22314,-3.8525 -1.21582,-1.4649 -3.500977,-1.4649 -2.167968,0 -3.581543,1.5821 -1.40625,1.5747 -1.40625,3.8232 0,2.417 1.369629,3.9185 1.369629,1.4941 3.581543,1.4941 0.593262,0 1.245117,-0.081 0.65918,-0.08 1.245118,-0.2563 l 0,1.04 q -0.615235,0.1465 -1.252442,0.2051 -0.629883,0.059 -1.245117,0.059 -2.592773,0 -4.291992,-1.7798 -1.699219,-1.7798 -1.699219,-4.6142 0,-2.688 1.750488,-4.5337 1.757813,-1.8457 4.277344,-1.8457 2.695311,0 4.218751,1.7431 1.52344,1.7359 1.52344,4.5191 z m -4.372562,1.8677 0,-3.794 q -0.410156,-0.2124 -0.754395,-0.3003 -0.344238,-0.095 -0.717773,-0.095 -0.827637,0 -1.333008,0.6226 -0.505371,0.6152 -0.505371,1.9116 0,1.1719 0.380859,1.7944 0.38086,0.6226 1.215821,0.6226 0.446777,0 0.878906,-0.2124 0.439453,-0.2124 0.834961,-0.5493 z"
         style="font-style:normal;font-variant:normal;font-weight:normal;font-stretch:normal;font-size:15px;font-family:Tahoma;-inkscape-font-specification:Tahoma"
         id="path4837"
         inkscape:connector-curvature="0" />
      <path
         d="m 111.47738,1045.6932 -1.37695,0 0,-4.6582 q 0,-0.5639 -0.0586,-1.0473 -0.0513,-0.4908 -0.20507,-0.7837 -0.16846,-0.3076 -0.46875,-0.4541 -0.3003,-0.1538 -0.82032,-0.1538 -0.51269,0 -1.06201,0.2783 -0.54199,0.271 -1.06201,0.7104 l 0,6.1084 -1.37695,0 0,-8.1811 1.37695,0 0,0.9082 q 0.61524,-0.5493 1.21582,-0.8423 0.60059,-0.293 1.26709,-0.293 1.2085,0 1.88965,0.7984 0.68115,0.791 0.68115,2.2998 l 0,5.31 z"
         style="font-style:normal;font-variant:normal;font-weight:normal;font-stretch:normal;font-size:15px;font-family:Tahoma;-inkscape-font-specification:Tahoma"
         id="path4839"
         inkscape:connector-curvature="0" />
      <path
         d="m 119.85629,1037.5121 -4.40186,11.1987 -1.47217,0 1.46485,-3.4131 -2.97363,-7.7856 1.48681,0 2.23389,6.0571 2.22656,-6.0571 1.43555,0 z"
         style="font-style:normal;font-variant:normal;font-weight:normal;font-stretch:normal;font-size:15px;font-family:Tahoma;-inkscape-font-specification:Tahoma"
         id="path4841"
         inkscape:connector-curvature="0" />
      <path
         d="m 125.46664,1043.6791 0,-2.2705 q -0.49072,0.044 -1.24512,0.1245 -0.74707,0.073 -1.20849,0.2124 -0.54932,0.1684 -0.90821,0.52 -0.35888,0.3442 -0.35888,0.9668 0,0.7031 0.3955,1.062 0.39551,0.3589 1.15723,0.3589 0.65186,0 1.1792,-0.2783 0.52734,-0.2857 0.98877,-0.6958 z m 0,1.1426 q -0.16846,0.1245 -0.4541,0.3515 -0.27832,0.2197 -0.54199,0.3516 -0.36622,0.1904 -0.71045,0.2929 -0.33692,0.1026 -0.95215,0.1026 -0.50537,0 -0.95947,-0.1904 -0.45411,-0.1905 -0.79834,-0.5347 -0.32959,-0.3369 -0.52735,-0.8276 -0.19775,-0.4981 -0.19775,-1.0474 0,-0.8496 0.35888,-1.4429 0.35889,-0.6006 1.13526,-0.9521 0.68848,-0.315 1.62598,-0.4322 0.9375,-0.1245 2.02148,-0.1831 l 0,-0.2636 q 0,-0.4834 -0.14648,-0.7764 -0.14649,-0.3003 -0.41016,-0.4614 -0.26367,-0.1685 -0.64453,-0.2198 -0.38086,-0.059 -0.78369,-0.059 -0.47608,0 -1.12061,0.1464 -0.64453,0.1392 -1.28906,0.4102 l -0.0806,0 0,-1.3989 q 0.38086,-0.1099 1.09131,-0.2417 0.71045,-0.1319 1.40625,-0.1319 0.84229,0 1.4209,0.1319 0.57861,0.1318 1.04004,0.476 0.44678,0.337 0.6665,0.8716 0.21973,0.5347 0.21973,1.3037 l 0,5.5957 -1.36963,0 0,-0.8715 z"
         style="font-style:normal;font-variant:normal;font-weight:normal;font-stretch:normal;font-size:15px;font-family:Tahoma;-inkscape-font-specification:Tahoma"
         id="path4843"
         inkscape:connector-curvature="0" />
      <path
         d="m 135.20785,1045.6932 -1.37695,0 0,-4.6582 q 0,-0.5639 -0.0586,-1.0473 -0.0513,-0.4908 -0.20507,-0.7837 -0.16846,-0.3076 -0.46875,-0.4541 -0.3003,-0.1538 -0.82032,-0.1538 -0.51269,0 -1.06201,0.2783 -0.54199,0.271 -1.06201,0.7104 l 0,6.1084 -1.37695,0 0,-8.1811 1.37695,0 0,0.9082 q 0.61523,-0.5493 1.21582,-0.8423 0.60059,-0.293 1.26709,-0.293 1.2085,0 1.88965,0.7984 0.68115,0.791 0.68115,2.2998 l 0,5.31 z"
         style="font-style:normal;font-variant:normal;font-weight:normal;font-stretch:normal;font-size:15px;font-family:Tahoma;-inkscape-font-specification:Tahoma"
         id="path4845"
         inkscape:connector-curvature="0" />
      <path
         d="m 139.30209,1045.6932 -1.75049,0 0,-2.0874 1.75049,0 0,2.0874 z"
         style="font-style:normal;font-variant:normal;font-weight:normal;font-stretch:normal;font-size:15px;font-family:Tahoma;-inkscape-font-specification:Tahoma"
         id="path4847"
         inkscape:connector-curvature="0" />
      <path
         d="m 143.90902,1045.891 q -0.82031,0 -1.53808,-0.2197 -0.71045,-0.2198 -1.1792,-0.4688 l 0,-1.5454 0.0732,0 q 0.17578,0.1392 0.41016,0.3076 0.24169,0.1685 0.6372,0.3516 0.35157,0.1611 0.76905,0.2856 0.4248,0.1245 0.8789,0.1245 0.32959,0 0.70313,-0.073 0.37353,-0.081 0.55664,-0.1978 0.25635,-0.1684 0.36621,-0.3588 0.11719,-0.1905 0.11719,-0.5713 0,-0.4908 -0.271,-0.7398 -0.26367,-0.249 -0.94482,-0.4175 -0.26368,-0.066 -0.68848,-0.1538 -0.42481,-0.088 -0.78369,-0.1904 -0.9375,-0.271 -1.36231,-0.835 -0.4248,-0.5712 -0.4248,-1.3769 0,-1.106 0.83496,-1.8018 0.83496,-0.6958 2.21924,-0.6958 0.68115,0 1.36963,0.1685 0.68847,0.1684 1.15722,0.4248 l 0,1.4722 -0.0732,0 q -0.52734,-0.4175 -1.1792,-0.6592 -0.64453,-0.2417 -1.30371,-0.2417 -0.68115,0 -1.1499,0.2856 -0.46875,0.2857 -0.46875,0.8643 0,0.5127 0.27832,0.769 0.27832,0.2491 0.89355,0.4102 0.30762,0.081 0.68116,0.1611 0.38085,0.073 0.79834,0.1758 0.9082,0.227 1.3623,0.7544 0.46143,0.5273 0.46143,1.4355 0,0.5274 -0.21241,1.0035 -0.20507,0.4687 -0.60791,0.8056 -0.43945,0.3662 -0.99609,0.5567 -0.54932,0.1904 -1.38428,0.1904 z"
         style="font-style:normal;font-variant:normal;font-weight:normal;font-stretch:normal;font-size:15px;font-family:Tahoma;-inkscape-font-specification:Tahoma"
         id="path4849"
         inkscape:connector-curvature="0" />
      <path
         d="m 155.26889,1041.3866 q 0,2.0435 -0.98145,3.2593 -0.97412,1.2085 -2.46826,1.2085 -0.60791,0 -1.07666,-0.1392 -0.46875,-0.1392 -0.95947,-0.4321 l 0,3.4277 -1.37696,0 0,-11.1987 1.37696,0 0,0.8569 q 0.51269,-0.4614 1.13525,-0.769 0.62988,-0.315 1.36963,-0.315 1.40625,0 2.18994,1.1133 0.79102,1.1133 0.79102,2.9883 z m -1.4209,0.1538 q 0,-1.3989 -0.44678,-2.168 -0.44678,-0.7763 -1.4502,-0.7763 -0.58593,0 -1.13525,0.2636 -0.54199,0.2564 -1.03271,0.6665 l 0,4.6363 q 0.54199,0.2636 0.92285,0.3589 0.38818,0.095 0.88623,0.095 1.06933,0 1.6626,-0.7837 0.59326,-0.7837 0.59326,-2.2925 z"
         style="font-style:normal;font-variant:normal;font-weight:normal;font-stretch:normal;font-size:15px;font-family:Tahoma;-inkscape-font-specification:Tahoma"
         id="path4851"
         inkscape:connector-curvature="0" />
      <path
         d="m 161.26742,1043.6791 0,-2.2705 q -0.49072,0.044 -1.24512,0.1245 -0.74707,0.073 -1.20849,0.2124 -0.54932,0.1684 -0.90821,0.52 -0.35888,0.3442 -0.35888,0.9668 0,0.7031 0.39551,1.062 0.3955,0.3589 1.15722,0.3589 0.65186,0 1.1792,-0.2783 0.52734,-0.2857 0.98877,-0.6958 z m 0,1.1426 q -0.16846,0.1245 -0.4541,0.3515 -0.27832,0.2197 -0.54199,0.3516 -0.36621,0.1904 -0.71045,0.2929 -0.33692,0.1026 -0.95215,0.1026 -0.50537,0 -0.95947,-0.1904 -0.4541,-0.1905 -0.79834,-0.5347 -0.32959,-0.3369 -0.52735,-0.8276 -0.19775,-0.4981 -0.19775,-1.0474 0,-0.8496 0.35889,-1.4429 0.35888,-0.6006 1.13525,-0.9521 0.68848,-0.315 1.62598,-0.4322 0.9375,-0.1245 2.02148,-0.1831 l 0,-0.2636 q 0,-0.4834 -0.14648,-0.7764 -0.14649,-0.3003 -0.41016,-0.4614 -0.26367,-0.1685 -0.64453,-0.2198 -0.38086,-0.059 -0.78369,-0.059 -0.47608,0 -1.12061,0.1464 -0.64453,0.1392 -1.28906,0.4102 l -0.0806,0 0,-1.3989 q 0.38086,-0.1099 1.09131,-0.2417 0.71045,-0.1319 1.40625,-0.1319 0.84229,0 1.4209,0.1319 0.57861,0.1318 1.04004,0.476 0.44678,0.337 0.6665,0.8716 0.21973,0.5347 0.21973,1.3037 l 0,5.5957 -1.36963,0 0,-0.8715 z"
         style="font-style:normal;font-variant:normal;font-weight:normal;font-stretch:normal;font-size:15px;font-family:Tahoma;-inkscape-font-specification:Tahoma"
         id="path4853"
         inkscape:connector-curvature="0" />
      <path
         d="m 167.82992,1045.8763 q -0.84228,0 -1.54541,-0.2563 -0.70312,-0.2637 -1.2085,-0.791 -0.50537,-0.5274 -0.78369,-1.3257 -0.27832,-0.8057 -0.27832,-1.8897 0,-1.0766 0.28565,-1.8603 0.29297,-0.7837 0.77636,-1.3184 0.4834,-0.5346 1.20118,-0.8203 0.72509,-0.2929 1.55273,-0.2929 0.67383,0 1.29639,0.1904 0.62988,0.1904 1.1206,0.4394 l 0,1.5454 -0.0806,0 q -0.14649,-0.1245 -0.38086,-0.2856 -0.22705,-0.1611 -0.55664,-0.3296 -0.28565,-0.1465 -0.67383,-0.2563 -0.38819,-0.1099 -0.74707,-0.1099 -1.06934,0 -1.72119,0.813 -0.64453,0.8057 -0.64453,2.2851 0,1.4502 0.62255,2.2632 0.62989,0.8057 1.74317,0.8057 0.67383,0 1.28174,-0.2783 0.60791,-0.2783 1.07666,-0.7178 l 0.0806,0 0,1.5454 q -0.20508,0.095 -0.51269,0.2344 -0.30762,0.1318 -0.55664,0.1977 -0.35157,0.1026 -0.62989,0.1538 -0.27832,0.059 -0.71777,0.059 z"
         style="font-style:normal;font-variant:normal;font-weight:normal;font-stretch:normal;font-size:15px;font-family:Tahoma;-inkscape-font-specification:Tahoma"
         id="path4855"
         inkscape:connector-curvature="0" />
      <path
         d="m 175.04428,1045.8837 q -1.95557,0 -3.03955,-1.0987 -1.07666,-1.1059 -1.07666,-3.1347 0,-1.9995 1.04736,-3.1787 1.04736,-1.1866 2.73926,-1.1866 0.76172,0 1.34765,0.2198 0.58594,0.2197 1.02539,0.6884 0.43946,0.4688 0.67383,1.1499 0.23438,0.6739 0.23438,1.6553 l 0,0.7471 -5.66895,0 q 0,1.4282 0.71777,2.1826 0.71778,0.7544 1.98487,0.7544 0.4541,0 0.88623,-0.1025 0.43945,-0.1026 0.79101,-0.2637 0.37354,-0.1685 0.62989,-0.3223 0.25634,-0.1611 0.4248,-0.3003 l 0.0806,0 0,1.5015 q -0.2417,0.095 -0.60059,0.2417 -0.35888,0.1391 -0.64453,0.2197 -0.40283,0.1099 -0.73242,0.1685 -0.32227,0.059 -0.82031,0.059 z m 1.61132,-5.1929 q -0.0146,-0.5566 -0.13183,-0.9595 -0.11719,-0.4028 -0.33692,-0.6811 -0.24169,-0.3076 -0.62255,-0.4688 -0.37354,-0.1611 -0.93018,-0.1611 -0.54932,0 -0.9375,0.1684 -0.38086,0.1612 -0.6958,0.4761 -0.30762,0.3223 -0.46875,0.7178 -0.16113,0.3882 -0.20508,0.9082 l 4.32861,0 z"
         style="font-style:normal;font-variant:normal;font-weight:normal;font-stretch:normal;font-size:15px;font-family:Tahoma;-inkscape-font-specification:Tahoma"
         id="path4857"
         inkscape:connector-curvature="0" />
    </g>
  </g>
</svg>
